<?xml version="1.0" encoding="UTF-8" standalone="no"?>
<!-- Generator: Adobe Illustrator 22.0.1, SVG Export Plug-In . SVG Version: 6.00 Build 0)  -->

<svg
   xmlns:dc="http://purl.org/dc/elements/1.1/"
   xmlns:cc="http://creativecommons.org/ns#"
   xmlns:rdf="http://www.w3.org/1999/02/22-rdf-syntax-ns#"
   xmlns:svg="http://www.w3.org/2000/svg"
   xmlns="http://www.w3.org/2000/svg"
   xmlns:sodipodi="http://sodipodi.sourceforge.net/DTD/sodipodi-0.dtd"
   xmlns:inkscape="http://www.inkscape.org/namespaces/inkscape"
   version="1.1"
   id="Capa_1"
   x="0px"
   y="0px"
   viewBox="0 0 381 93"
   xml:space="preserve"
   sodipodi:docname="direccion.svg"
   width="381"
   height="93"
   inkscape:version="0.92.3 (2405546, 2018-03-11)"><metadata
   id="metadata93"><rdf:RDF><cc:Work
       rdf:about=""><dc:format>image/svg+xml</dc:format><dc:type
         rdf:resource="http://purl.org/dc/dcmitype/StillImage" /><dc:title></dc:title></cc:Work></rdf:RDF></metadata><defs
   id="defs91" /><sodipodi:namedview
   pagecolor="#ffffff"
   bordercolor="#666666"
   borderopacity="1"
   objecttolerance="10"
   gridtolerance="10"
   guidetolerance="10"
   inkscape:pageopacity="0"
   inkscape:pageshadow="2"
   inkscape:window-width="640"
   inkscape:window-height="480"
   id="namedview89"
   showgrid="false"
   inkscape:zoom="0.86"
   inkscape:cx="195.45642"
   inkscape:cy="74.214804"
   inkscape:window-x="0"
   inkscape:window-y="27"
   inkscape:window-maximized="0"
   inkscape:current-layer="Capa_1" />
<style
   type="text/css"
   id="style2">
	.st0{fill:none;stroke:#808080;stroke-width:1.1617;stroke-miterlimit:10;}
	.st1{fill:none;stroke:#808080;stroke-width:1.0878;stroke-miterlimit:10;}
</style>


<g
   id="g50"
   transform="translate(-30,-21)">
	<path
   d="m 46.8,109.9 -0.3,-2.4 h -0.1 c -1.1,1.5 -3.2,2.9 -5.9,2.9 -3.9,0 -5.9,-2.8 -5.9,-5.6 0,-4.7 4.2,-7.2 11.6,-7.2 v -0.4 c 0,-1.6 -0.4,-4.5 -4.4,-4.5 -1.8,0 -3.7,0.6 -5,1.4 L 36,91.8 c 1.6,-1 3.9,-1.7 6.4,-1.7 5.9,0 7.4,4 7.4,7.9 v 7.2 c 0,1.7 0.1,3.3 0.3,4.6 H 46.8 Z M 46.3,100 c -3.8,-0.1 -8.2,0.6 -8.2,4.4 0,2.3 1.5,3.4 3.3,3.4 2.5,0 4.1,-1.6 4.7,-3.2 0.1,-0.4 0.2,-0.8 0.2,-1.1 z"
   id="path8"
   inkscape:connector-curvature="0" />
	<path
   d="m 69.2,109.2 c -0.9,0.5 -3,1.1 -5.6,1.1 -5.8,0 -9.6,-4 -9.6,-9.9 0,-6 4.1,-10.3 10.4,-10.3 2.1,0 3.9,0.5 4.9,1 l -0.8,2.7 c -0.8,-0.5 -2.2,-0.9 -4.1,-0.9 -4.4,0 -6.8,3.3 -6.8,7.3 0,4.5 2.9,7.2 6.7,7.2 2,0 3.3,-0.5 4.3,-1 z"
   id="path10"
   inkscape:connector-curvature="0" />
	<path
   d="m 73.3,96.6 c 0,-2.3 0,-4.2 -0.2,-6 h 3.1 l 0.1,3.8 h 0.2 c 0.9,-2.6 3,-4.2 5.4,-4.2 0.4,0 0.7,0 1,0.1 v 3.3 c -0.4,-0.1 -0.7,-0.1 -1.2,-0.1 -2.5,0 -4.2,1.9 -4.7,4.5 -0.1,0.5 -0.2,1 -0.2,1.6 v 10.3 h -3.5 z"
   id="path12"
   inkscape:connector-curvature="0" />
	<path
   d="m 90.4,85.1 c 0,1.2 -0.8,2.2 -2.2,2.2 -1.2,0 -2.1,-1 -2.1,-2.2 0,-1.2 0.9,-2.2 2.2,-2.2 1.3,0 2.1,1 2.1,2.2 z m -3.9,24.8 V 90.5 H 90 v 19.4 z"
   id="path14"
   inkscape:connector-curvature="0" />
	<path
   d="m 95.9,81.5 h 3.5 v 28.4 h -3.5 z"
   id="path16"
   inkscape:connector-curvature="0" />
	<path
   d="m 116,109.9 -0.3,-2.4 h -0.1 c -1.1,1.5 -3.2,2.9 -5.9,2.9 -3.9,0 -5.9,-2.8 -5.9,-5.6 0,-4.7 4.2,-7.2 11.6,-7.2 v -0.4 c 0,-1.6 -0.4,-4.5 -4.4,-4.5 -1.8,0 -3.7,0.6 -5,1.4 l -0.8,-2.3 c 1.6,-1 3.9,-1.7 6.4,-1.7 5.9,0 7.4,4 7.4,7.9 v 7.2 c 0,1.7 0.1,3.3 0.3,4.6 H 116 Z m -0.5,-9.9 c -3.8,-0.1 -8.2,0.6 -8.2,4.4 0,2.3 1.5,3.4 3.3,3.4 2.5,0 4.1,-1.6 4.7,-3.2 0.1,-0.4 0.2,-0.8 0.2,-1.1 z"
   id="path18"
   inkscape:connector-curvature="0" />
	<path
   d="m 124.1,106.3 c 1,0.7 2.9,1.4 4.6,1.4 2.6,0 3.8,-1.3 3.8,-2.9 0,-1.7 -1,-2.6 -3.6,-3.6 -3.5,-1.2 -5.1,-3.2 -5.1,-5.5 0,-3.1 2.5,-5.7 6.7,-5.7 2,0 3.7,0.6 4.8,1.2 l -0.9,2.6 c -0.8,-0.5 -2.2,-1.1 -4,-1.1 -2.1,0 -3.2,1.2 -3.2,2.6 0,1.6 1.2,2.3 3.7,3.3 3.4,1.3 5.1,3 5.1,5.8 0,3.4 -2.6,5.8 -7.2,5.8 -2.1,0 -4.1,-0.5 -5.4,-1.3 z"
   id="path20"
   inkscape:connector-curvature="0" />
	<path
   d="m 142.4,100.9 c 0.1,4.8 3.1,6.7 6.6,6.7 2.5,0 4,-0.4 5.4,-1 l 0.6,2.5 c -1.2,0.6 -3.4,1.2 -6.4,1.2 -6,0 -9.5,-3.9 -9.5,-9.8 0,-5.9 3.4,-10.4 9.1,-10.4 6.3,0 8,5.6 8,9.1 0,0.7 -0.1,1.3 -0.1,1.6 h -13.7 z m 10.3,-2.6 c 0,-2.2 -0.9,-5.7 -4.9,-5.7 -3.6,0 -5.1,3.3 -5.4,5.7 z"
   id="path22"
   inkscape:connector-curvature="0" />
	<path
   d="m 160.5,96.6 c 0,-2.3 0,-4.2 -0.2,-6 h 3.1 l 0.1,3.8 h 0.2 c 0.9,-2.6 3,-4.2 5.4,-4.2 0.4,0 0.7,0 1,0.1 v 3.3 c -0.4,-0.1 -0.7,-0.1 -1.2,-0.1 -2.5,0 -4.2,1.9 -4.7,4.5 -0.1,0.5 -0.2,1 -0.2,1.6 v 10.3 h -3.5 z"
   id="path24"
   inkscape:connector-curvature="0" />
	<path
   d="m 191.6,112.5 c -2.2,1.2 -4.4,1.6 -7.1,1.6 -6.6,0 -12.1,-4.8 -12.1,-12.5 0,-8.2 5.7,-15.4 14.6,-15.4 7,0 11.6,4.9 11.6,11.6 0,6 -3.4,9.5 -7.1,9.5 -1.6,0 -3.1,-1.1 -3,-3.5 h -0.2 c -1.4,2.4 -3.2,3.5 -5.6,3.5 -2.3,0 -4.3,-1.9 -4.3,-5 0,-5 3.9,-9.5 9.5,-9.5 1.7,0 3.2,0.4 4.3,0.8 l -1.4,7.2 c -0.6,3 -0.1,4.4 1.2,4.5 2,0 4.3,-2.7 4.3,-7.3 0,-5.8 -3.5,-10 -9.7,-10 -6.5,0 -12,5.2 -12,13.3 0,6.7 4.4,10.8 10.3,10.8 2.3,0 4.4,-0.5 6,-1.4 z m -2.2,-17.3 c -0.4,-0.1 -1.1,-0.3 -2,-0.3 -3.5,0 -6.4,3.3 -6.4,7.2 0,1.8 0.9,3 2.6,3 2.3,0 4.4,-3 4.9,-5.4 z"
   id="path26"
   inkscape:connector-curvature="0" />
	<path
   d="m 203,81.5 h 3.5 v 12.1 h 0.1 c 0.6,-1 1.4,-1.9 2.5,-2.5 1,-0.6 2.3,-1 3.6,-1 2.6,0 6.8,1.6 6.8,8.3 v 11.5 H 216 V 98.8 c 0,-3.1 -1.2,-5.8 -4.5,-5.8 -2.3,0 -4.1,1.6 -4.7,3.5 -0.2,0.5 -0.2,1 -0.2,1.7 v 11.7 H 203 Z"
   id="path28"
   inkscape:connector-curvature="0" />
	<path
   d="m 242.8,100.1 c 0,7.2 -5,10.3 -9.6,10.3 -5.2,0 -9.3,-3.8 -9.3,-10 0,-6.5 4.2,-10.3 9.6,-10.3 5.5,0 9.3,4 9.3,10 z m -15.4,0.2 c 0,4.2 2.4,7.4 5.9,7.4 3.4,0 5.9,-3.2 5.9,-7.5 0,-3.3 -1.6,-7.4 -5.8,-7.4 -4.2,0 -6,3.8 -6,7.5 z"
   id="path30"
   inkscape:connector-curvature="0" />
	<path
   d="m 251.4,85 v 5.6 h 5 v 2.7 h -5 v 10.4 c 0,2.4 0.7,3.8 2.6,3.8 0.9,0 1.6,-0.1 2,-0.2 l 0.2,2.6 c -0.7,0.3 -1.8,0.5 -3.1,0.5 -1.6,0 -3,-0.5 -3.8,-1.5 -1,-1 -1.4,-2.8 -1.4,-5 V 93.2 h -3 v -2.7 h 3 v -4.6 z"
   id="path32"
   inkscape:connector-curvature="0" />
	<path
   d="m 260.4,95.8 c 0,-2 0,-3.6 -0.2,-5.2 h 3.1 l 0.2,3.1 h 0.1 c 1.1,-1.8 2.9,-3.6 6.1,-3.6 2.6,0 4.6,1.6 5.5,3.9 h 0.1 c 0.6,-1.1 1.4,-1.9 2.2,-2.5 1.2,-0.9 2.4,-1.4 4.3,-1.4 2.6,0 6.4,1.7 6.4,8.4 v 11.4 h -3.4 v -11 c 0,-3.7 -1.4,-6 -4.2,-6 -2,0 -3.6,1.5 -4.2,3.2 -0.2,0.5 -0.3,1.1 -0.3,1.8 v 12 h -3.4 V 98.3 c 0,-3.1 -1.4,-5.3 -4,-5.3 -2.2,0 -3.8,1.8 -4.4,3.5 -0.2,0.5 -0.3,1.1 -0.3,1.7 v 11.7 h -3.4 V 95.8 Z"
   id="path34"
   inkscape:connector-curvature="0" />
	<path
   d="m 304.5,109.9 -0.3,-2.4 h -0.1 c -1.1,1.5 -3.2,2.9 -5.9,2.9 -3.9,0 -5.9,-2.8 -5.9,-5.6 0,-4.7 4.2,-7.2 11.6,-7.2 v -0.4 c 0,-1.6 -0.4,-4.5 -4.4,-4.5 -1.8,0 -3.7,0.6 -5,1.4 l -0.8,-2.3 c 1.6,-1 3.9,-1.7 6.4,-1.7 5.9,0 7.4,4 7.4,7.9 v 7.2 c 0,1.7 0.1,3.3 0.3,4.6 h -3.3 z M 304,100 c -3.8,-0.1 -8.2,0.6 -8.2,4.4 0,2.3 1.5,3.4 3.3,3.4 2.5,0 4.1,-1.6 4.7,-3.2 0.1,-0.4 0.2,-0.8 0.2,-1.1 z"
   id="path36"
   inkscape:connector-curvature="0" />
	<path
   d="m 317,85.1 c 0,1.2 -0.8,2.2 -2.2,2.2 -1.2,0 -2.1,-1 -2.1,-2.2 0,-1.2 0.9,-2.2 2.2,-2.2 1.3,0 2.1,1 2.1,2.2 z m -3.9,24.8 V 90.5 h 3.5 v 19.4 z"
   id="path38"
   inkscape:connector-curvature="0" />
	<path
   d="m 322.4,81.5 h 3.5 v 28.4 h -3.5 z"
   id="path40"
   inkscape:connector-curvature="0" />
	<path
   d="m 330.6,107.8 c 0,-1.5 1,-2.5 2.4,-2.5 1.4,0 2.4,1 2.4,2.5 0,1.4 -0.9,2.5 -2.4,2.5 -1.4,0 -2.4,-1 -2.4,-2.5 z"
   id="path42"
   inkscape:connector-curvature="0" />
	<path
   d="m 353.6,109.2 c -0.9,0.5 -3,1.1 -5.6,1.1 -5.8,0 -9.6,-4 -9.6,-9.9 0,-6 4.1,-10.3 10.4,-10.3 2.1,0 3.9,0.5 4.9,1 l -0.8,2.7 c -0.8,-0.5 -2.2,-0.9 -4.1,-0.9 -4.4,0 -6.8,3.3 -6.8,7.3 0,4.5 2.9,7.2 6.7,7.2 2,0 3.3,-0.5 4.3,-1 z"
   id="path44"
   inkscape:connector-curvature="0" />
	<path
   d="m 375,100.1 c 0,7.2 -5,10.3 -9.6,10.3 -5.2,0 -9.3,-3.8 -9.3,-10 0,-6.5 4.2,-10.3 9.6,-10.3 5.5,0 9.3,4 9.3,10 z m -15.4,0.2 c 0,4.2 2.4,7.4 5.9,7.4 3.4,0 5.9,-3.2 5.9,-7.5 0,-3.3 -1.6,-7.4 -5.8,-7.4 -4.2,0 -6,3.8 -6,7.5 z"
   id="path46"
   inkscape:connector-curvature="0" />
	<path
   d="m 379.4,95.8 c 0,-2 0,-3.6 -0.2,-5.2 h 3.1 l 0.2,3.1 h 0.1 c 1.1,-1.8 2.9,-3.6 6.1,-3.6 2.6,0 4.6,1.6 5.5,3.9 h 0.1 c 0.6,-1.1 1.4,-1.9 2.2,-2.5 1.2,-0.9 2.4,-1.4 4.3,-1.4 2.6,0 6.4,1.7 6.4,8.4 v 11.4 h -3.4 v -11 c 0,-3.7 -1.4,-6 -4.2,-6 -2,0 -3.6,1.5 -4.2,3.2 -0.2,0.5 -0.3,1.1 -0.3,1.8 v 12 h -3.4 V 98.3 c 0,-3.1 -1.4,-5.3 -4,-5.3 -2.2,0 -3.8,1.8 -4.4,3.5 -0.2,0.5 -0.3,1.1 -0.3,1.7 v 11.7 h -3.4 V 95.8 Z"
   id="path48"
   inkscape:connector-curvature="0" />
</g>
<g
   id="g86"
   transform="translate(-22,-21)">
	<path
   d="m 28.8,25.3 v 16 c 0,6 2.7,8.6 6.3,8.6 4,0 6.6,-2.6 6.6,-8.6 v -16 h 3.5 V 41 c 0,8.3 -4.4,11.7 -10.2,11.7 -5.5,0 -9.7,-3.2 -9.7,-11.5 V 25.3 Z"
   id="path52"
   inkscape:connector-curvature="0" />
	<path
   d="m 51.1,39 c 0,-2.3 0,-4.2 -0.2,-6 H 54 l 0.1,3.8 h 0.2 c 0.9,-2.6 3,-4.2 5.4,-4.2 0.4,0 0.7,0 1,0.1 V 36 c -0.4,-0.1 -0.7,-0.1 -1.2,-0.1 -2.5,0 -4.2,1.9 -4.7,4.5 -0.1,0.5 -0.2,1 -0.2,1.6 v 10.3 h -3.5 z"
   id="path54"
   inkscape:connector-curvature="0" />
	<path
   d="m 80.4,47 c 0,2 0,3.8 0.2,5.3 h -3.1 l -0.2,-3.2 h -0.1 c -0.9,1.6 -3,3.6 -6.4,3.6 -3,0 -6.7,-1.7 -6.7,-8.5 V 32.9 h 3.5 v 10.7 c 0,3.7 1.1,6.2 4.3,6.2 2.4,0 4,-1.6 4.6,-3.2 0.2,-0.5 0.3,-1.2 0.3,-1.8 V 32.9 h 3.5 V 47 Z"
   id="path56"
   inkscape:connector-curvature="0" />
	<path
   d="m 102.9,32.9 c -0.1,1.4 -0.2,3 -0.2,5.3 v 11.2 c 0,4.4 -0.9,7.2 -2.8,8.8 -1.9,1.8 -4.6,2.3 -7,2.3 -2.3,0 -4.9,-0.6 -6.4,-1.6 l 0.9,-2.7 c 1.3,0.8 3.3,1.5 5.7,1.5 3.6,0 6.2,-1.9 6.2,-6.8 V 49 h -0.1 c -1.1,1.8 -3.2,3.2 -6.2,3.2 -4.8,0 -8.2,-4.1 -8.2,-9.4 0,-6.6 4.3,-10.3 8.7,-10.3 3.4,0 5.2,1.8 6,3.4 h 0.1 L 99.8,33 h 3.1 z m -3.7,7.7 c 0,-0.6 0,-1.1 -0.2,-1.6 -0.6,-2 -2.4,-3.7 -4.9,-3.7 -3.4,0 -5.8,2.8 -5.8,7.3 0,3.8 1.9,7 5.7,7 2.2,0 4.1,-1.4 4.9,-3.6 0.2,-0.6 0.3,-1.3 0.3,-1.9 z"
   id="path58"
   inkscape:connector-curvature="0" />
	<path
   d="m 124.8,47 c 0,2 0,3.8 0.2,5.3 h -3.1 l -0.2,-3.2 h -0.1 c -0.9,1.6 -3,3.6 -6.4,3.6 -3,0 -6.7,-1.7 -6.7,-8.5 V 32.9 h 3.5 v 10.7 c 0,3.7 1.1,6.2 4.3,6.2 2.4,0 4,-1.6 4.6,-3.2 0.2,-0.5 0.3,-1.2 0.3,-1.8 V 32.9 h 3.5 V 47 Z"
   id="path60"
   inkscape:connector-curvature="0" />
	<path
   d="M 141.3,52.3 141,49.9 h -0.1 c -1.1,1.5 -3.2,2.9 -5.9,2.9 -3.9,0 -5.9,-2.8 -5.9,-5.6 0,-4.7 4.2,-7.2 11.6,-7.2 v -0.4 c 0,-1.6 -0.4,-4.5 -4.4,-4.5 -1.8,0 -3.7,0.6 -5,1.4 l -0.8,-2.3 c 1.6,-1 3.9,-1.7 6.4,-1.7 5.9,0 7.4,4 7.4,7.9 v 7.2 c 0,1.7 0.1,3.3 0.3,4.6 h -3.3 z m -0.5,-9.9 c -3.8,-0.1 -8.2,0.6 -8.2,4.4 0,2.3 1.5,3.4 3.3,3.4 2.5,0 4.1,-1.6 4.7,-3.2 0.1,-0.4 0.2,-0.8 0.2,-1.1 z"
   id="path62"
   inkscape:connector-curvature="0" />
	<path
   d="m 150.8,32.9 4.2,11.4 c 0.4,1.3 0.9,2.8 1.2,4 h 0.1 c 0.4,-1.2 0.8,-2.6 1.2,-4 l 3.8,-11.4 h 3.7 l -5.3,13.8 c -2.5,6.6 -4.2,10 -6.6,12.1 -1.7,1.5 -3.4,2.1 -4.3,2.3 l -0.9,-3 c 0.9,-0.3 2,-0.8 3.1,-1.7 1,-0.8 2.2,-2.1 3,-3.9 0.2,-0.4 0.3,-0.6 0.3,-0.8 0,-0.2 -0.1,-0.5 -0.2,-0.9 L 147,32.9 Z"
   id="path64"
   inkscape:connector-curvature="0" />
	<path
   d="m 183.4,29.6 v 0 l -4.6,2.4 -0.7,-2.7 5.7,-3 h 3 v 26 h -3.4 z"
   id="path66"
   inkscape:connector-curvature="0" />
	<path
   d="m 213.2,26.3 v 2.3 l -11.3,23.7 h -3.6 l 11.3,-23 v -0.1 h -12.7 v -2.9 z"
   id="path68"
   inkscape:connector-curvature="0" />
	<path
   d="m 234.1,39 c 0,8.8 -3.3,13.7 -9,13.7 -5.1,0 -8.5,-4.8 -8.6,-13.4 0,-8.7 3.8,-13.5 9,-13.5 5.5,0 8.6,4.9 8.6,13.2 z M 220,39.4 c 0,6.8 2.1,10.6 5.3,10.6 3.6,0 5.3,-4.2 5.3,-10.8 0,-6.4 -1.6,-10.6 -5.3,-10.6 -3.1,0 -5.3,3.7 -5.3,10.8 z"
   id="path70"
   inkscape:connector-curvature="0" />
	<path
   d="m 265.9,51.4 c -1.3,0.6 -3.8,1.3 -7.1,1.3 -7.6,0 -13.3,-4.8 -13.3,-13.6 0,-8.4 5.7,-14.2 14.1,-14.2 3.4,0 5.5,0.7 6.4,1.2 l -0.8,2.8 c -1.3,-0.6 -3.2,-1.1 -5.4,-1.1 -6.3,0 -10.5,4 -10.5,11.1 0,6.6 3.8,10.8 10.4,10.8 2.1,0 4.3,-0.4 5.7,-1.1 z"
   id="path72"
   inkscape:connector-curvature="0" />
	<path
   d="m 269.3,50.2 c 0,-1.5 1,-2.5 2.4,-2.5 1.4,0 2.4,1 2.4,2.5 0,1.4 -0.9,2.5 -2.4,2.5 -1.5,0 -2.4,-1.1 -2.4,-2.5 z"
   id="path74"
   inkscape:connector-curvature="0" />
	<path
   d="m 282.9,43.8 -2.8,8.5 h -3.6 l 9.2,-27 h 4.2 l 9.2,27 h -3.7 l -2.9,-8.5 z m 8.8,-2.7 -2.6,-7.8 c -0.6,-1.8 -1,-3.4 -1.4,-4.9 h -0.1 c -0.4,1.6 -0.8,3.2 -1.4,4.9 l -2.6,7.8 z"
   id="path76"
   inkscape:connector-curvature="0" />
	<path
   d="m 302,50.2 c 0,-1.5 1,-2.5 2.4,-2.5 1.4,0 2.4,1 2.4,2.5 0,1.4 -0.9,2.5 -2.4,2.5 -1.4,0 -2.4,-1.1 -2.4,-2.5 z"
   id="path78"
   inkscape:connector-curvature="0" />
	<path
   d="m 311.3,25.7 c 1.5,-0.3 3.9,-0.6 6.4,-0.6 3.5,0 5.7,0.6 7.4,2 1.4,1 2.2,2.6 2.2,4.8 0,2.6 -1.7,4.9 -4.6,5.9 v 0.1 c 2.6,0.6 5.6,2.8 5.6,6.8 0,2.3 -0.9,4.1 -2.3,5.4 -1.9,1.7 -4.9,2.5 -9.3,2.5 -2.4,0 -4.2,-0.2 -5.4,-0.3 z m 3.5,11 h 3.2 c 3.7,0 5.8,-1.9 5.8,-4.5 0,-3.2 -2.4,-4.4 -5.9,-4.4 -1.6,0 -2.5,0.1 -3.1,0.2 z m 0,12.9 c 0.7,0.1 1.7,0.2 2.9,0.2 3.6,0 6.9,-1.3 6.9,-5.2 0,-3.7 -3.2,-5.2 -7,-5.2 h -2.9 v 10.2 z"
   id="path80"
   inkscape:connector-curvature="0" />
	<path
   d="m 331.5,50.2 c 0,-1.5 1,-2.5 2.4,-2.5 1.4,0 2.4,1 2.4,2.5 0,1.4 -0.9,2.5 -2.4,2.5 -1.5,0 -2.4,-1.1 -2.4,-2.5 z"
   id="path82"
   inkscape:connector-curvature="0" />
	<path
   d="m 345.1,43.8 -2.8,8.5 h -3.6 l 9.2,-27 h 4.2 l 9.2,27 h -3.7 l -2.9,-8.5 z m 8.8,-2.7 -2.6,-7.8 c -0.6,-1.8 -1,-3.4 -1.4,-4.9 h -0.1 c -0.4,1.6 -0.8,3.2 -1.4,4.9 l -2.6,7.8 z"
   id="path84"
   inkscape:connector-curvature="0" />
</g>
</svg>