<?xml version="1.0" encoding="utf-8"?>
<!-- Generator: Adobe Illustrator 22.0.1, SVG Export Plug-In . SVG Version: 6.00 Build 0)  -->
<svg version="1.1" id="Capa_1" xmlns="http://www.w3.org/2000/svg" xmlns:xlink="http://www.w3.org/1999/xlink" x="0px" y="0px"
	 viewBox="0 0 450 136" style="enable-background:new 0 0 450 136;" xml:space="preserve">
<style type="text/css">
	.st0{fill:none;stroke:#808080;stroke-width:1.1617;stroke-miterlimit:10;}
	.st1{fill:none;stroke:#808080;stroke-width:1.0878;stroke-miterlimit:10;}
</style>
<path class="st0" d="M429.5,119.5H13.5c-3.8,0-7-3.1-7-7V80.5c0-3.8,3.1-7,7-7h416.1c3.8,0,7,3.1,7,7v32.1
	C436.5,116.4,433.4,119.5,429.5,119.5z"/>
<path class="st1" d="M377,61.5H13c-3.6,0-6.5-2.9-6.5-6.5V22c0-3.6,2.9-6.5,6.5-6.5H377c3.6,0,6.5,2.9,6.5,6.5V55
	C383.5,58.6,380.6,61.5,377,61.5z"/>
<g>
	<path d="M46.8,109.9l-0.3-2.4h-0.1c-1.1,1.5-3.2,2.9-5.9,2.9c-3.9,0-5.9-2.8-5.9-5.6c0-4.7,4.2-7.2,11.6-7.2v-0.4
		c0-1.6-0.4-4.5-4.4-4.5c-1.8,0-3.7,0.6-5,1.4L36,91.8c1.6-1,3.9-1.7,6.4-1.7c5.9,0,7.4,4,7.4,7.9v7.2c0,1.7,0.1,3.3,0.3,4.6H46.8z
		 M46.3,100c-3.8-0.1-8.2,0.6-8.2,4.4c0,2.3,1.5,3.4,3.3,3.4c2.5,0,4.1-1.6,4.7-3.2c0.1-0.4,0.2-0.8,0.2-1.1V100z"/>
	<path d="M69.2,109.2c-0.9,0.5-3,1.1-5.6,1.1c-5.8,0-9.6-4-9.6-9.9c0-6,4.1-10.3,10.4-10.3c2.1,0,3.9,0.5,4.9,1l-0.8,2.7
		c-0.8-0.5-2.2-0.9-4.1-0.9c-4.4,0-6.8,3.3-6.8,7.3c0,4.5,2.9,7.2,6.7,7.2c2,0,3.3-0.5,4.3-1L69.2,109.2z"/>
	<path d="M73.3,96.6c0-2.3,0-4.2-0.2-6h3.1l0.1,3.8h0.2c0.9-2.6,3-4.2,5.4-4.2c0.4,0,0.7,0,1,0.1v3.3c-0.4-0.1-0.7-0.1-1.2-0.1
		c-2.5,0-4.2,1.9-4.7,4.5c-0.1,0.5-0.2,1-0.2,1.6v10.3h-3.5V96.6z"/>
	<path d="M90.4,85.1c0,1.2-0.8,2.2-2.2,2.2c-1.2,0-2.1-1-2.1-2.2c0-1.2,0.9-2.2,2.2-2.2C89.6,82.9,90.4,83.9,90.4,85.1z M86.5,109.9
		V90.5H90v19.4H86.5z"/>
	<path d="M95.9,81.5h3.5v28.4h-3.5V81.5z"/>
	<path d="M116,109.9l-0.3-2.4h-0.1c-1.1,1.5-3.2,2.9-5.9,2.9c-3.9,0-5.9-2.8-5.9-5.6c0-4.7,4.2-7.2,11.6-7.2v-0.4
		c0-1.6-0.4-4.5-4.4-4.5c-1.8,0-3.7,0.6-5,1.4l-0.8-2.3c1.6-1,3.9-1.7,6.4-1.7c5.9,0,7.4,4,7.4,7.9v7.2c0,1.7,0.1,3.3,0.3,4.6H116z
		 M115.5,100c-3.8-0.1-8.2,0.6-8.2,4.4c0,2.3,1.5,3.4,3.3,3.4c2.5,0,4.1-1.6,4.7-3.2c0.1-0.4,0.2-0.8,0.2-1.1V100z"/>
	<path d="M124.1,106.3c1,0.7,2.9,1.4,4.6,1.4c2.6,0,3.8-1.3,3.8-2.9c0-1.7-1-2.6-3.6-3.6c-3.5-1.2-5.1-3.2-5.1-5.5
		c0-3.1,2.5-5.7,6.7-5.7c2,0,3.7,0.6,4.8,1.2l-0.9,2.6c-0.8-0.5-2.2-1.1-4-1.1c-2.1,0-3.2,1.2-3.2,2.6c0,1.6,1.2,2.3,3.7,3.3
		c3.4,1.3,5.1,3,5.1,5.8c0,3.4-2.6,5.8-7.2,5.8c-2.1,0-4.1-0.5-5.4-1.3L124.1,106.3z"/>
	<path d="M142.4,100.9c0.1,4.8,3.1,6.7,6.6,6.7c2.5,0,4-0.4,5.4-1l0.6,2.5c-1.2,0.6-3.4,1.2-6.4,1.2c-6,0-9.5-3.9-9.5-9.8
		s3.4-10.4,9.1-10.4c6.3,0,8,5.6,8,9.1c0,0.7-0.1,1.3-0.1,1.6H142.4z M152.7,98.3c0-2.2-0.9-5.7-4.9-5.7c-3.6,0-5.1,3.3-5.4,5.7
		H152.7z"/>
	<path d="M160.5,96.6c0-2.3,0-4.2-0.2-6h3.1l0.1,3.8h0.2c0.9-2.6,3-4.2,5.4-4.2c0.4,0,0.7,0,1,0.1v3.3c-0.4-0.1-0.7-0.1-1.2-0.1
		c-2.5,0-4.2,1.9-4.7,4.5c-0.1,0.5-0.2,1-0.2,1.6v10.3h-3.5V96.6z"/>
	<path d="M191.6,112.5c-2.2,1.2-4.4,1.6-7.1,1.6c-6.6,0-12.1-4.8-12.1-12.5c0-8.2,5.7-15.4,14.6-15.4c7,0,11.6,4.9,11.6,11.6
		c0,6-3.4,9.5-7.1,9.5c-1.6,0-3.1-1.1-3-3.5h-0.2c-1.4,2.4-3.2,3.5-5.6,3.5c-2.3,0-4.3-1.9-4.3-5c0-5,3.9-9.5,9.5-9.5
		c1.7,0,3.2,0.4,4.3,0.8l-1.4,7.2c-0.6,3-0.1,4.4,1.2,4.5c2,0,4.3-2.7,4.3-7.3c0-5.8-3.5-10-9.7-10c-6.5,0-12,5.2-12,13.3
		c0,6.7,4.4,10.8,10.3,10.8c2.3,0,4.4-0.5,6-1.4L191.6,112.5z M189.4,95.2c-0.4-0.1-1.1-0.3-2-0.3c-3.5,0-6.4,3.3-6.4,7.2
		c0,1.8,0.9,3,2.6,3c2.3,0,4.4-3,4.9-5.4L189.4,95.2z"/>
	<path d="M203,81.5h3.5v12.1h0.1c0.6-1,1.4-1.9,2.5-2.5c1-0.6,2.3-1,3.6-1c2.6,0,6.8,1.6,6.8,8.3v11.5H216V98.8
		c0-3.1-1.2-5.8-4.5-5.8c-2.3,0-4.1,1.6-4.7,3.5c-0.2,0.5-0.2,1-0.2,1.7v11.7H203V81.5z"/>
	<path d="M242.8,100.1c0,7.2-5,10.3-9.6,10.3c-5.2,0-9.3-3.8-9.3-10c0-6.5,4.2-10.3,9.6-10.3C239,90.1,242.8,94.1,242.8,100.1z
		 M227.4,100.3c0,4.2,2.4,7.4,5.9,7.4c3.4,0,5.9-3.2,5.9-7.5c0-3.3-1.6-7.4-5.8-7.4S227.4,96.6,227.4,100.3z"/>
	<path d="M251.4,85v5.6h5v2.7h-5v10.4c0,2.4,0.7,3.8,2.6,3.8c0.9,0,1.6-0.1,2-0.2l0.2,2.6c-0.7,0.3-1.8,0.5-3.1,0.5
		c-1.6,0-3-0.5-3.8-1.5c-1-1-1.4-2.8-1.4-5V93.2h-3v-2.7h3v-4.6L251.4,85z"/>
	<path d="M260.4,95.8c0-2,0-3.6-0.2-5.2h3.1l0.2,3.1h0.1c1.1-1.8,2.9-3.6,6.1-3.6c2.6,0,4.6,1.6,5.5,3.9h0.1
		c0.6-1.1,1.4-1.9,2.2-2.5c1.2-0.9,2.4-1.4,4.3-1.4c2.6,0,6.4,1.7,6.4,8.4v11.4h-3.4v-11c0-3.7-1.4-6-4.2-6c-2,0-3.6,1.5-4.2,3.2
		c-0.2,0.5-0.3,1.1-0.3,1.8v12h-3.4V98.3c0-3.1-1.4-5.3-4-5.3c-2.2,0-3.8,1.8-4.4,3.5c-0.2,0.5-0.3,1.1-0.3,1.7v11.7h-3.4V95.8z"/>
	<path d="M304.5,109.9l-0.3-2.4h-0.1c-1.1,1.5-3.2,2.9-5.9,2.9c-3.9,0-5.9-2.8-5.9-5.6c0-4.7,4.2-7.2,11.6-7.2v-0.4
		c0-1.6-0.4-4.5-4.4-4.5c-1.8,0-3.7,0.6-5,1.4l-0.8-2.3c1.6-1,3.9-1.7,6.4-1.7c5.9,0,7.4,4,7.4,7.9v7.2c0,1.7,0.1,3.3,0.3,4.6H304.5
		z M304,100c-3.8-0.1-8.2,0.6-8.2,4.4c0,2.3,1.5,3.4,3.3,3.4c2.5,0,4.1-1.6,4.7-3.2c0.1-0.4,0.2-0.8,0.2-1.1V100z"/>
	<path d="M317,85.1c0,1.2-0.8,2.2-2.2,2.2c-1.2,0-2.1-1-2.1-2.2c0-1.2,0.9-2.2,2.2-2.2C316.2,82.9,317,83.9,317,85.1z M313.1,109.9
		V90.5h3.5v19.4H313.1z"/>
	<path d="M322.4,81.5h3.5v28.4h-3.5V81.5z"/>
	<path d="M330.6,107.8c0-1.5,1-2.5,2.4-2.5c1.4,0,2.4,1,2.4,2.5c0,1.4-0.9,2.5-2.4,2.5C331.6,110.3,330.6,109.3,330.6,107.8z"/>
	<path d="M353.6,109.2c-0.9,0.5-3,1.1-5.6,1.1c-5.8,0-9.6-4-9.6-9.9c0-6,4.1-10.3,10.4-10.3c2.1,0,3.9,0.5,4.9,1l-0.8,2.7
		c-0.8-0.5-2.2-0.9-4.1-0.9c-4.4,0-6.8,3.3-6.8,7.3c0,4.5,2.9,7.2,6.7,7.2c2,0,3.3-0.5,4.3-1L353.6,109.2z"/>
	<path d="M375,100.1c0,7.2-5,10.3-9.6,10.3c-5.2,0-9.3-3.8-9.3-10c0-6.5,4.2-10.3,9.6-10.3C371.2,90.1,375,94.1,375,100.1z
		 M359.6,100.3c0,4.2,2.4,7.4,5.9,7.4c3.4,0,5.9-3.2,5.9-7.5c0-3.3-1.6-7.4-5.8-7.4S359.6,96.6,359.6,100.3z"/>
	<path d="M379.4,95.8c0-2,0-3.6-0.2-5.2h3.1l0.2,3.1h0.1c1.1-1.8,2.9-3.6,6.1-3.6c2.6,0,4.6,1.6,5.5,3.9h0.1
		c0.6-1.1,1.4-1.9,2.2-2.5c1.2-0.9,2.4-1.4,4.3-1.4c2.6,0,6.4,1.7,6.4,8.4v11.4h-3.4v-11c0-3.7-1.4-6-4.2-6c-2,0-3.6,1.5-4.2,3.2
		c-0.2,0.5-0.3,1.1-0.3,1.8v12h-3.4V98.3c0-3.1-1.4-5.3-4-5.3c-2.2,0-3.8,1.8-4.4,3.5c-0.2,0.5-0.3,1.1-0.3,1.7v11.7h-3.4V95.8z"/>
</g>
<g>
	<path d="M28.8,25.3v16c0,6,2.7,8.6,6.3,8.6c4,0,6.6-2.6,6.6-8.6v-16h3.5V41c0,8.3-4.4,11.7-10.2,11.7c-5.5,0-9.7-3.2-9.7-11.5V25.3
		H28.8z"/>
	<path d="M51.1,39c0-2.3,0-4.2-0.2-6H54l0.1,3.8h0.2c0.9-2.6,3-4.2,5.4-4.2c0.4,0,0.7,0,1,0.1v3.3c-0.4-0.1-0.7-0.1-1.2-0.1
		c-2.5,0-4.2,1.9-4.7,4.5c-0.1,0.5-0.2,1-0.2,1.6v10.3h-3.5V39z"/>
	<path d="M80.4,47c0,2,0,3.8,0.2,5.3h-3.1l-0.2-3.2h-0.1c-0.9,1.6-3,3.6-6.4,3.6c-3,0-6.7-1.7-6.7-8.5V32.9h3.5v10.7
		c0,3.7,1.1,6.2,4.3,6.2c2.4,0,4-1.6,4.6-3.2c0.2-0.5,0.3-1.2,0.3-1.8V32.9h3.5V47z"/>
	<path d="M102.9,32.9c-0.1,1.4-0.2,3-0.2,5.3v11.2c0,4.4-0.9,7.2-2.8,8.8c-1.9,1.8-4.6,2.3-7,2.3c-2.3,0-4.9-0.6-6.4-1.6l0.9-2.7
		c1.3,0.8,3.3,1.5,5.7,1.5c3.6,0,6.2-1.9,6.2-6.8V49h-0.1c-1.1,1.8-3.2,3.2-6.2,3.2c-4.8,0-8.2-4.1-8.2-9.4c0-6.6,4.3-10.3,8.7-10.3
		c3.4,0,5.2,1.8,6,3.4h0.1l0.2-2.9H102.9z M99.2,40.6c0-0.6,0-1.1-0.2-1.6c-0.6-2-2.4-3.7-4.9-3.7c-3.4,0-5.8,2.8-5.8,7.3
		c0,3.8,1.9,7,5.7,7c2.2,0,4.1-1.4,4.9-3.6c0.2-0.6,0.3-1.3,0.3-1.9V40.6z"/>
	<path d="M124.8,47c0,2,0,3.8,0.2,5.3h-3.1l-0.2-3.2h-0.1c-0.9,1.6-3,3.6-6.4,3.6c-3,0-6.7-1.7-6.7-8.5V32.9h3.5v10.7
		c0,3.7,1.1,6.2,4.3,6.2c2.4,0,4-1.6,4.6-3.2c0.2-0.5,0.3-1.2,0.3-1.8V32.9h3.5V47z"/>
	<path d="M141.3,52.3l-0.3-2.4h-0.1c-1.1,1.5-3.2,2.9-5.9,2.9c-3.9,0-5.9-2.8-5.9-5.6c0-4.7,4.2-7.2,11.6-7.2v-0.4
		c0-1.6-0.4-4.5-4.4-4.5c-1.8,0-3.7,0.6-5,1.4l-0.8-2.3c1.6-1,3.9-1.7,6.4-1.7c5.9,0,7.4,4,7.4,7.9v7.2c0,1.7,0.1,3.3,0.3,4.6H141.3
		z M140.8,42.4c-3.8-0.1-8.2,0.6-8.2,4.4c0,2.3,1.5,3.4,3.3,3.4c2.5,0,4.1-1.6,4.7-3.2c0.1-0.4,0.2-0.8,0.2-1.1V42.4z"/>
	<path d="M150.8,32.9l4.2,11.4c0.4,1.3,0.9,2.8,1.2,4h0.1c0.4-1.2,0.8-2.6,1.2-4l3.8-11.4h3.7l-5.3,13.8c-2.5,6.6-4.2,10-6.6,12.1
		c-1.7,1.5-3.4,2.1-4.3,2.3l-0.9-3c0.9-0.3,2-0.8,3.1-1.7c1-0.8,2.2-2.1,3-3.9c0.2-0.4,0.3-0.6,0.3-0.8c0-0.2-0.1-0.5-0.2-0.9
		L147,32.9H150.8z"/>
	<path d="M183.4,29.6L183.4,29.6l-4.6,2.4l-0.7-2.7l5.7-3h3v26h-3.4V29.6z"/>
	<path d="M213.2,26.3v2.3l-11.3,23.7h-3.6l11.3-23v-0.1h-12.7v-2.9H213.2z"/>
	<path d="M234.1,39c0,8.8-3.3,13.7-9,13.7c-5.1,0-8.5-4.8-8.6-13.4c0-8.7,3.8-13.5,9-13.5C231,25.8,234.1,30.7,234.1,39z M220,39.4
		c0,6.8,2.1,10.6,5.3,10.6c3.6,0,5.3-4.2,5.3-10.8c0-6.4-1.6-10.6-5.3-10.6C222.2,28.6,220,32.3,220,39.4z"/>
	<path d="M265.9,51.4c-1.3,0.6-3.8,1.3-7.1,1.3c-7.6,0-13.3-4.8-13.3-13.6c0-8.4,5.7-14.2,14.1-14.2c3.4,0,5.5,0.7,6.4,1.2l-0.8,2.8
		c-1.3-0.6-3.2-1.1-5.4-1.1c-6.3,0-10.5,4-10.5,11.1c0,6.6,3.8,10.8,10.4,10.8c2.1,0,4.3-0.4,5.7-1.1L265.9,51.4z"/>
	<path d="M269.3,50.2c0-1.5,1-2.5,2.4-2.5c1.4,0,2.4,1,2.4,2.5c0,1.4-0.9,2.5-2.4,2.5C270.2,52.7,269.3,51.6,269.3,50.2z"/>
	<path d="M282.9,43.8l-2.8,8.5h-3.6l9.2-27h4.2l9.2,27h-3.7l-2.9-8.5H282.9z M291.7,41.1l-2.6-7.8c-0.6-1.8-1-3.4-1.4-4.9h-0.1
		c-0.4,1.6-0.8,3.2-1.4,4.9l-2.6,7.8H291.7z"/>
	<path d="M302,50.2c0-1.5,1-2.5,2.4-2.5c1.4,0,2.4,1,2.4,2.5c0,1.4-0.9,2.5-2.4,2.5C303,52.7,302,51.6,302,50.2z"/>
	<path d="M311.3,25.7c1.5-0.3,3.9-0.6,6.4-0.6c3.5,0,5.7,0.6,7.4,2c1.4,1,2.2,2.6,2.2,4.8c0,2.6-1.7,4.9-4.6,5.9v0.1
		c2.6,0.6,5.6,2.8,5.6,6.8c0,2.3-0.9,4.1-2.3,5.4c-1.9,1.7-4.9,2.5-9.3,2.5c-2.4,0-4.2-0.2-5.4-0.3V25.7z M314.8,36.7h3.2
		c3.7,0,5.8-1.9,5.8-4.5c0-3.2-2.4-4.4-5.9-4.4c-1.6,0-2.5,0.1-3.1,0.2V36.7z M314.8,49.6c0.7,0.1,1.7,0.2,2.9,0.2
		c3.6,0,6.9-1.3,6.9-5.2c0-3.7-3.2-5.2-7-5.2h-2.9V49.6z"/>
	<path d="M331.5,50.2c0-1.5,1-2.5,2.4-2.5c1.4,0,2.4,1,2.4,2.5c0,1.4-0.9,2.5-2.4,2.5C332.4,52.7,331.5,51.6,331.5,50.2z"/>
	<path d="M345.1,43.8l-2.8,8.5h-3.6l9.2-27h4.2l9.2,27h-3.7l-2.9-8.5H345.1z M353.9,41.1l-2.6-7.8c-0.6-1.8-1-3.4-1.4-4.9h-0.1
		c-0.4,1.6-0.8,3.2-1.4,4.9l-2.6,7.8H353.9z"/>
</g>
</svg>
