<?xml version="1.0" encoding="UTF-8" standalone="no"?>
<!-- Generator: Adobe Illustrator 22.0.1, SVG Export Plug-In . SVG Version: 6.00 Build 0)  -->

<svg
   xmlns:dc="http://purl.org/dc/elements/1.1/"
   xmlns:cc="http://creativecommons.org/ns#"
   xmlns:rdf="http://www.w3.org/1999/02/22-rdf-syntax-ns#"
   xmlns:svg="http://www.w3.org/2000/svg"
   xmlns="http://www.w3.org/2000/svg"
   xmlns:sodipodi="http://sodipodi.sourceforge.net/DTD/sodipodi-0.dtd"
   xmlns:inkscape="http://www.inkscape.org/namespaces/inkscape"
   version="1.1"
   id="Capa_1"
   x="0px"
   y="0px"
   viewBox="0 0 56 56.5"
   xml:space="preserve"
   inkscape:version="0.92.3 (2405546, 2018-03-11)"
   sodipodi:docname="instagramLogo.svg"
   width="56"
   height="56.5"><metadata
     id="metadata17"><rdf:RDF><cc:Work
         rdf:about=""><dc:format>image/svg+xml</dc:format><dc:type
           rdf:resource="http://purl.org/dc/dcmitype/StillImage" /><dc:title /></cc:Work></rdf:RDF></metadata><defs
     id="defs15" /><sodipodi:namedview
     pagecolor="#ffffff"
     bordercolor="#666666"
     borderopacity="1"
     objecttolerance="10"
     gridtolerance="10"
     guidetolerance="10"
     inkscape:pageopacity="0"
     inkscape:pageshadow="2"
     inkscape:window-width="1366"
     inkscape:window-height="713"
     id="namedview13"
     showgrid="false"
     inkscape:zoom="1.4767894"
     inkscape:cx="151.81871"
     inkscape:cy="13.423398"
     inkscape:window-x="0"
     inkscape:window-y="27"
     inkscape:window-maximized="1"
     inkscape:current-layer="Capa_1" /><style
     type="text/css"
     id="style3">
	.st0{fill:#FFFFFF;}
</style><g
     id="g5"
     transform="translate(1.13135,-2.2394068)"><path
       class="st0"
       d="M 26.8,3.5 C 13.2,3.5 2.3,14.5 2.3,28 c 0,13.5 11,24.5 24.5,24.5 13.5,0 24.5,-11 24.5,-24.5 0,-13.5 -11,-24.5 -24.5,-24.5 z m 16.3,31 c 0,5.4 -4.4,9.8 -9.8,9.8 h -13 c -5.4,0 -9.8,-4.4 -9.8,-9.8 v -13 c 0,-5.4 4.4,-9.8 9.8,-9.8 h 13 c 5.4,0 9.8,4.4 9.8,9.8 z"
       id="path7"
       inkscape:connector-curvature="0"
       style="fill:#ffffff" /><path
       class="st0"
       d="m 26.8,22.9 c -2.8,0 -5.1,2.3 -5.1,5.1 0,2.8 2.3,5.1 5.1,5.1 2.8,0 5.1,-2.3 5.1,-5.1 0,-2.8 -2.3,-5.1 -5.1,-5.1 z"
       id="path9"
       inkscape:connector-curvature="0"
       style="fill:#ffffff" /><path
       class="st0"
       d="m 33.2,14.8 h -13 c -3.7,0 -6.7,3 -6.7,6.7 v 13 c 0,3.7 3,6.7 6.7,6.7 h 13 c 3.7,0 6.7,-3 6.7,-6.7 v -13 c 0,-3.7 -3,-6.7 -6.7,-6.7 z M 26.9,36 c -4.4,0 -8,-3.6 -8,-8 0,-4.4 3.6,-8 8,-8 4.4,0 8,3.6 8,8 0,4.4 -3.6,8 -8,8 z m 8.5,-14.6 c -1.1,0 -1.9,-0.9 -1.9,-1.9 0,-1.1 0.9,-1.9 1.9,-1.9 1.1,0 1.9,0.9 1.9,1.9 0,1 -0.9,1.9 -1.9,1.9 z"
       id="path11"
       inkscape:connector-curvature="0"
       style="fill:#ffffff" /></g></svg>