<?xml version="1.0" encoding="UTF-8" standalone="no"?>
<!-- Generator: Adobe Illustrator 22.0.1, SVG Export Plug-In . SVG Version: 6.00 Build 0)  -->

<svg
   xmlns:dc="http://purl.org/dc/elements/1.1/"
   xmlns:cc="http://creativecommons.org/ns#"
   xmlns:rdf="http://www.w3.org/1999/02/22-rdf-syntax-ns#"
   xmlns:svg="http://www.w3.org/2000/svg"
   xmlns="http://www.w3.org/2000/svg"
   xmlns:sodipodi="http://sodipodi.sourceforge.net/DTD/sodipodi-0.dtd"
   xmlns:inkscape="http://www.inkscape.org/namespaces/inkscape"
   version="1.1"
   id="Capa_1"
   x="0px"
   y="0px"
   viewBox="0 0 127.40001 127"
   xml:space="preserve"
   inkscape:version="0.92.3 (2405546, 2018-03-11)"
   sodipodi:docname="logo.svg"
   width="127.40002"
   height="127"><metadata
     id="metadata65"><rdf:RDF><cc:Work
         rdf:about=""><dc:format>image/svg+xml</dc:format><dc:type
           rdf:resource="http://purl.org/dc/dcmitype/StillImage" /><dc:title></dc:title></cc:Work></rdf:RDF></metadata><defs
     id="defs63" /><sodipodi:namedview
     pagecolor="#ffffff"
     bordercolor="#666666"
     borderopacity="1"
     objecttolerance="10"
     gridtolerance="10"
     guidetolerance="10"
     inkscape:pageopacity="0"
     inkscape:pageshadow="2"
     inkscape:window-width="1366"
     inkscape:window-height="713"
     id="namedview61"
     showgrid="false"
     inkscape:zoom="5.6301844"
     inkscape:cx="10.886108"
     inkscape:cy="85.235743"
     inkscape:window-x="0"
     inkscape:window-y="27"
     inkscape:window-maximized="1"
     inkscape:current-layer="Capa_1" /><style
     type="text/css"
     id="style3">
	.st0{fill:#1A1A1A;}
	.st1{fill-rule:evenodd;clip-rule:evenodd;fill:#1B1918;}
	.st2{fill-rule:evenodd;clip-rule:evenodd;fill:#FFFFFF;}
	.st3{fill-rule:evenodd;clip-rule:evenodd;fill:#131610;}
	.st4{fill-rule:evenodd;clip-rule:evenodd;fill:#E30016;}
	.st5{display:none;}
	.st6{display:inline;}
	.st7{fill:#F2F2F2;stroke:#808080;stroke-width:0.4372;stroke-miterlimit:10;}
</style><g
     id="g7"
     transform="translate(-22.710456,-8)"><path
       class="st1"
       d="m 78.4,120.4 c 30.5,0 55.4,-25.2 55.4,-56.1 C 133.8,33.4 108.9,8.2 78.4,8.2 47.9,8.2 23,33.4 23,64.3 c 0,30.9 24.9,56.1 55.4,56.1 z"
       id="path9"
       inkscape:connector-curvature="0"
       style="clip-rule:evenodd;fill:#1b1918;fill-rule:evenodd" /><path
       class="st2"
       d="m 78.4,8.4 c -30.5,0 -55.2,25.1 -55.2,55.9 0,30.9 24.8,55.9 55.2,55.9 30.5,0 55.2,-25.1 55.2,-55.9 0,-30.8 -24.8,-55.9 -55.2,-55.9 z m 0,112.1 c -30.6,0 -55.5,-25.2 -55.5,-56.2 0,-31 24.9,-56.2 55.5,-56.2 30.6,0 55.5,25.2 55.5,56.2 0,31 -24.9,56.2 -55.5,56.2 z"
       id="path11"
       inkscape:connector-curvature="0"
       style="clip-rule:evenodd;fill:#ffffff;fill-rule:evenodd" /><path
       class="st2"
       d="m 78.4,116.6 c 28.5,0 51.7,-23.5 51.7,-52.3 C 130,35.5 106.8,12 78.4,12 49.9,12 26.7,35.5 26.7,64.3 c 0,28.8 23.2,52.3 51.7,52.3 z"
       id="path13"
       inkscape:connector-curvature="0"
       style="clip-rule:evenodd;fill:#ffffff;fill-rule:evenodd" /><path
       class="st3"
       d="m 78.4,112.2 c 26,0 47.3,-21.5 47.3,-47.9 0,-26.4 -21.2,-47.9 -47.3,-47.9 -26,0 -47.3,21.5 -47.3,47.9 0,26.4 21.2,47.9 47.3,47.9 z"
       id="path15"
       inkscape:connector-curvature="0"
       style="clip-rule:evenodd;fill:#131610;fill-rule:evenodd" /><path
       class="st2"
       d="m 49.9,67.9 -0.4,1 c -0.2,0.6 -0.6,1.6 -0.8,2.3 l -4,0.1 c 0.1,-0.2 0.2,-0.8 0.3,-1.1 1,-3.8 1.7,-6.2 2.2,-7.1 0.2,-0.3 0.4,-0.5 0.6,-0.7 0.2,-0.2 0.6,-0.3 1,-0.4 0.4,-0.1 0.9,-0.2 1.4,-0.2 0.5,0 0.8,0.1 1,0.2 0.2,0.1 0.3,0.4 0.3,0.7 0,0.3 -0.1,0.9 -0.4,1.8 -0.3,0.9 -0.7,2 -1.2,3.4 z"
       id="path17"
       inkscape:connector-curvature="0"
       style="clip-rule:evenodd;fill:#ffffff;fill-rule:evenodd" /><path
       class="st2"
       d="m 48.6,71.1 c -0.1,0.3 -0.3,0.8 -0.3,1.1 -0.2,0.6 -0.5,1.6 -0.9,3.1 0.6,-0.1 1.4,-0.2 2.4,-0.4 0.6,-0.1 1,-0.2 1.2,-0.2 0.2,0 0.4,0.1 0.4,0.3 0,0.3 -0.1,0.6 -0.4,1.1 -0.3,0.5 -0.6,0.9 -0.9,1.2 -0.2,0.2 -0.6,0.4 -1,0.5 -0.5,0.1 -1.2,0.1 -2.2,0.1 -0.9,0 -1.6,0 -2.1,-0.1 0,0 -0.1,0 -0.4,-0.1 -0.4,-0.2 -0.6,-0.6 -0.6,-1.2 0,-0.4 0.1,-1.2 0.3,-2.4 0.2,-0.8 0.4,-2 0.7,-3 z"
       id="path19"
       inkscape:connector-curvature="0"
       style="clip-rule:evenodd;fill:#ffffff;fill-rule:evenodd" /><path
       class="st2"
       d="m 61.9,67.1 -1.6,3.8 h -2.8 c 0.4,-0.8 0.7,-1.4 0.8,-1.6 0.2,-0.3 0.4,-0.7 0.6,-1.2 0.2,-0.5 0.5,-1 0.8,-1.7 C 60,65.8 60.4,65 61,64 l -0.6,-1.3 c 0.2,-0.2 0.3,-0.2 0.5,-0.3 0.5,-0.2 1.2,-0.3 2,-0.3 0.8,0 1.4,0.2 1.8,0.7 0.4,0.4 0.7,1 0.9,1.8 0.2,0.8 0.5,1.9 0.7,3.3 0.1,0.7 0.2,1.3 0.3,1.7 0.1,0.5 0.2,0.9 0.3,1.2 l -4,0.1 z"
       id="path21"
       inkscape:connector-curvature="0"
       style="clip-rule:evenodd;fill:#ffffff;fill-rule:evenodd" /><path
       class="st2"
       d="m 66.9,71.2 c 0.1,0.3 0.2,0.8 0.3,1.2 0.1,0.2 0.2,0.4 0.3,0.8 0.1,0.3 0.2,0.6 0.3,0.9 0.2,0.6 0.6,1.4 1.1,2.4 -0.6,0.5 -1.1,0.8 -1.5,1 -0.4,0.2 -0.8,0.3 -1.1,0.3 -0.4,0 -0.8,-0.1 -1.1,-0.3 -0.3,-0.2 -0.5,-0.5 -0.8,-0.9 -0.3,-0.5 -0.5,-1.3 -0.8,-2.2 0,-0.1 -0.1,-0.2 -0.1,-0.3 0,-0.1 -0.1,-0.3 -0.1,-0.4 -0.8,0.4 -1.5,0.6 -1.9,0.6 -0.3,0 -0.5,0 -0.7,0 -0.2,0 -0.9,0 -2.3,-0.1 l -0.1,0.2 c -0.4,0.9 -0.8,1.6 -1.1,2.1 -0.3,0.5 -0.7,0.8 -1.2,1 -0.4,0.2 -1,0.3 -1.7,0.3 -0.4,0 -0.7,0 -0.8,-0.1 -0.2,-0.1 -0.2,-0.2 -0.2,-0.5 0,-0.3 0.4,-1 1.2,-2.2 0.3,-0.4 0.5,-0.7 0.6,-1 -0.7,-0.2 -1.1,-0.5 -1.1,-0.9 0,-0.4 0.3,-0.9 0.9,-1.6 0.1,-0.1 0.2,-0.5 0.3,-0.5 l 11.5,0.1 h 0.1 z"
       id="path23"
       inkscape:connector-curvature="0"
       style="clip-rule:evenodd;fill:#ffffff;fill-rule:evenodd" /><path
       class="st2"
       d="M 75.4,70.7 C 74.9,70.1 74.5,69.5 74.2,69 74,68.5 73.8,67.9 73.8,67.3 c 0,-0.9 0.2,-1.8 0.7,-2.6 0.5,-0.8 1.2,-1.4 2,-1.9 0.8,-0.5 1.7,-0.7 2.7,-0.7 1.1,0 1.9,0.2 2.5,0.8 0.6,0.5 0.9,1.2 0.9,2.1 0,0.4 -0.1,0.9 -0.3,1.4 -0.2,0.5 -0.5,0.9 -0.9,1.3 -0.3,0.3 -0.5,0.5 -0.7,0.6 -0.2,0.2 -0.4,0.2 -0.6,0.2 -0.2,0 -0.3,-0.2 -0.3,-0.5 0,0 0,-0.1 0,-0.4 0,-0.4 0.1,-0.7 0.1,-1 0,-0.4 -0.1,-0.8 -0.2,-1.2 C 79.6,65 79.5,64.6 79.3,64.4 79.1,64.1 79,64 78.8,64 c -0.1,0 -0.2,0.1 -0.3,0.2 -0.2,0.2 -0.3,0.5 -0.4,0.8 -0.1,0.3 -0.2,0.6 -0.2,0.9 0,0.4 0,0.7 0.1,1 0.1,0.3 0.3,0.6 0.5,0.9 0.2,0.3 0.5,0.7 0.9,1 0.6,0.6 1.1,1.1 1.4,1.6 l 0.1,0.1 z"
       id="path25"
       inkscape:connector-curvature="0"
       style="clip-rule:evenodd;fill:#ffffff;fill-rule:evenodd" /><path
       class="st2"
       d="m 81.3,71.2 c 0.1,0.4 0.2,0.9 0.2,1.3 0,0.9 -0.2,1.8 -0.6,2.7 -0.4,0.8 -1,1.5 -1.7,2.1 -0.7,0.5 -1.5,0.8 -2.2,0.8 -0.7,0 -1.4,-0.2 -2.1,-0.5 -0.7,-0.4 -1.3,-0.8 -1.9,-1.5 -0.6,-0.7 -0.9,-1.3 -0.9,-1.8 0,-0.3 0.1,-0.6 0.4,-0.9 0.3,-0.3 0.6,-0.6 1.1,-0.8 0.4,-0.2 0.8,-0.3 1.1,-0.3 0.2,0 0.3,0 0.4,0.1 0.1,0.1 0.2,0.2 0.3,0.5 0.1,0.2 0.2,0.5 0.3,0.9 0.1,0.5 0.3,0.9 0.4,1.2 0.1,0.2 0.3,0.5 0.5,0.8 0.2,0.2 0.4,0.4 0.7,0.4 0.3,0 0.5,-0.1 0.7,-0.4 0.2,-0.2 0.2,-0.6 0.2,-1 0,-0.7 -0.2,-1.4 -0.6,-2 -0.1,-0.2 -0.3,-0.4 -0.4,-0.6 -0.1,-0.1 -0.3,-0.3 -0.6,-0.6 z"
       id="path27"
       inkscape:connector-curvature="0"
       style="clip-rule:evenodd;fill:#ffffff;fill-rule:evenodd" /><path
       class="st2"
       d="m 96.3,72.5 h -3.9 v 0.3 c 0,0.6 0.1,1.1 0.4,1.6 0.3,0.5 0.6,0.7 1,0.7 0.4,0 0.9,-0.1 1.6,-0.5 0.7,-0.3 1.5,-0.7 2.4,-1.3 L 98.2,73 c 0.3,-0.2 0.4,-0.3 0.5,-0.4 0.4,-0.3 0.7,-0.4 0.8,-0.4 0.1,0 0.2,0.1 0.2,0.4 0,0.3 0,0.6 -0.1,1 -0.1,0.4 -0.2,0.7 -0.3,1 -0.1,0.3 -0.3,0.6 -0.4,0.7 -0.4,0.4 -1.1,0.8 -2.1,1.3 -1,0.5 -2,0.8 -3,1.1 -0.3,0.1 -0.6,0.1 -0.9,0.1 -1,0 -1.9,-0.2 -2.7,-0.7 -0.8,-0.4 -1.4,-1 -1.9,-1.8 -0.4,-0.8 -0.7,-1.6 -0.7,-2.5 0,-0.5 0.1,-1 0.2,-1.5 h 10.6 l -0.1,0.1 c -0.8,0.8 -1.4,1.1 -2,1.1 z"
       id="path29"
       inkscape:connector-curvature="0"
       style="clip-rule:evenodd;fill:#ffffff;fill-rule:evenodd" /><path
       class="st2"
       d="m 88,70.5 c 0.3,-0.8 0.6,-1.6 1.1,-2.4 0.5,-0.9 1.1,-1.8 1.8,-2.5 0.6,-0.7 1.2,-1.3 1.9,-1.8 0.7,-0.5 1.4,-1 2.1,-1.2 0.7,-0.3 1.3,-0.4 1.9,-0.4 0.9,0 1.6,0.3 2.3,0.8 0.6,0.5 0.9,1.2 0.9,2 0,0.3 -0.1,0.7 -0.2,1.1 -0.1,0.4 -0.3,0.8 -0.5,1.1 -0.2,0.3 -0.5,0.7 -0.9,1 -0.4,0.3 -0.8,0.6 -1.3,0.8 -0.6,0.3 -1.1,0.4 -1.5,0.4 -0.4,0 -0.6,-0.1 -0.6,-0.3 0,-0.1 0.1,-0.3 0.3,-0.6 0.3,-0.2 0.5,-0.6 0.7,-1 0.2,-0.5 0.4,-1 0.6,-1.6 0.2,-0.6 0.3,-1.1 0.3,-1.5 0,-0.3 -0.1,-0.4 -0.2,-0.4 -0.2,0 -0.7,0.3 -1.3,0.9 -0.6,0.6 -1.2,1.2 -1.5,1.8 -0.4,0.6 -0.6,1.1 -0.9,1.7 -0.2,0.6 -0.4,1.1 -0.5,1.7 h 5.7 c 0.6,0 0.9,0.2 0.9,0.5 z"
       id="path31"
       inkscape:connector-curvature="0"
       style="clip-rule:evenodd;fill:#ffffff;fill-rule:evenodd" /><path
       class="st2"
       d="m 108.1,66.2 0.3,-0.8 c -0.2,0 -0.4,0.1 -0.7,0.1 -0.1,0 -0.3,0.1 -0.6,0.1 -0.3,0 -0.5,-0.2 -0.5,-0.6 0,-0.2 0,-0.4 0.1,-0.6 0.1,-0.2 0.2,-0.4 0.3,-0.5 0.2,-0.3 0.8,-0.5 1.6,-0.6 0.8,-0.2 1.7,-0.3 2.8,-0.3 0.8,0 1.6,0.1 2.3,0.4 0.7,0.2 1.4,0.6 1.9,1 0.5,0.4 1,0.9 1.3,1.5 0.3,0.5 0.4,1.2 0.4,1.8 0,0.7 -0.1,1.4 -0.4,2 -0.1,0.3 -0.3,0.6 -0.5,0.8 l -3.8,0.1 c 0.3,-0.4 0.5,-0.8 0.7,-1.3 0.2,-0.6 0.3,-1.2 0.3,-1.8 0,-0.7 -0.1,-1.2 -0.4,-1.6 -0.3,-0.4 -0.8,-0.7 -1.4,-0.8 -0.5,1.9 -1,3.8 -1.4,5.6 l -3.8,0.1 c 0.1,-0.3 0.2,-0.6 0.3,-0.9 0.4,-1.4 0.8,-2.5 1.2,-3.7 z"
       id="path33"
       inkscape:connector-curvature="0"
       style="clip-rule:evenodd;fill:#ffffff;fill-rule:evenodd" /><path
       class="st2"
       d="m 114.5,71.3 c -0.1,0 -0.3,0.1 -0.4,0.2 0.1,0.3 0.3,0.5 0.4,0.6 0.1,0.2 0.3,0.4 0.5,0.6 0.6,0.6 1.6,1.2 2.8,1.7 0.1,0 0.1,0.1 0.2,0.1 -0.1,0.7 -0.2,1.2 -0.4,1.5 -0.1,0.3 -0.3,0.6 -0.5,1 -0.4,0.6 -1,1 -1.6,1 -0.3,0 -0.8,-0.1 -1.3,-0.4 -0.5,-0.3 -0.9,-0.6 -1.2,-1 -0.2,-0.3 -0.5,-0.7 -0.7,-1 -0.2,-0.4 -0.4,-0.8 -0.6,-1.2 -0.2,-0.5 -0.4,-0.9 -0.5,-1.4 -0.2,-0.4 -0.3,-0.8 -0.3,-1.2 0,-0.1 0,-0.2 0,-0.3 0,-0.1 0,-0.2 0,-0.2 z"
       id="path35"
       inkscape:connector-curvature="0"
       style="clip-rule:evenodd;fill:#ffffff;fill-rule:evenodd" /><path
       class="st2"
       d="m 110.3,71.3 -0.1,0.6 c -0.4,1.4 -0.7,2.5 -0.9,3.2 -0.2,0.7 -0.5,1.2 -0.7,1.4 -0.3,0.3 -0.6,0.6 -1.2,0.8 -0.5,0.3 -0.9,0.4 -1.2,0.4 -0.6,0 -0.9,-0.4 -0.9,-1.1 0,-0.3 0.1,-0.8 0.2,-1.5 0.2,-0.7 0.4,-1.7 0.7,-2.9 0.1,-0.3 0.2,-0.6 0.3,-0.9 z"
       id="path37"
       inkscape:connector-curvature="0"
       style="clip-rule:evenodd;fill:#ffffff;fill-rule:evenodd" /><path
       class="st2"
       d="m 85.5,44.6 0.3,-0.5 c -0.2,0 -0.5,0 -0.7,0.1 -0.1,0 -0.4,0 -0.6,0 -0.4,0 -0.5,-0.1 -0.5,-0.3 0,-0.1 0,-0.2 0.1,-0.4 0.1,-0.1 0.2,-0.2 0.3,-0.3 0.3,-0.2 0.8,-0.3 1.6,-0.4 0.8,-0.1 1.8,-0.2 2.9,-0.2 0.9,0 1.7,0.1 2.5,0.2 0.8,0.1 1.4,0.3 2,0.6 0.6,0.3 1,0.5 1.3,0.9 0.3,0.3 0.5,0.7 0.5,1.1 0,0.4 -0.1,0.8 -0.4,1.2 -0.3,0.4 -0.7,0.7 -1.2,0.9 -0.3,0.2 -0.6,0.3 -0.9,0.4 -0.3,0.1 -0.7,0.2 -1.3,0.3 0.1,0.2 0.3,0.3 0.4,0.4 0.1,0.1 0.3,0.2 0.5,0.4 0.7,0.4 1.6,0.7 2.9,1 0.1,0 0.1,0 0.2,0.1 -0.1,0.4 -0.3,0.7 -0.4,0.9 -0.1,0.2 -0.3,0.4 -0.6,0.6 -0.5,0.4 -1,0.6 -1.7,0.6 -0.4,0 -0.8,-0.1 -1.3,-0.3 -0.5,-0.2 -1,-0.4 -1.3,-0.6 -0.3,-0.2 -0.5,-0.4 -0.7,-0.6 -0.2,-0.2 -0.4,-0.5 -0.7,-0.7 -0.2,-0.3 -0.4,-0.5 -0.6,-0.8 -0.2,-0.3 -0.3,-0.5 -0.3,-0.7 0,0 0,-0.1 0,-0.2 0,-0.1 0,-0.2 0.1,-0.2 0.1,-0.1 0.3,-0.1 0.5,-0.2 0.3,-0.1 0.6,-0.2 0.8,-0.2 0.2,-0.1 0.5,-0.2 0.8,-0.4 0.4,-0.2 0.7,-0.5 0.9,-0.9 0.2,-0.3 0.3,-0.7 0.3,-1 0,-0.4 -0.2,-0.7 -0.5,-1 -0.3,-0.2 -0.8,-0.4 -1.5,-0.5 -0.6,1.5 -1.3,2.8 -1.9,4.1 l -0.2,0.5 c -0.4,0.8 -0.7,1.5 -1,1.9 -0.3,0.4 -0.5,0.7 -0.8,0.8 -0.3,0.2 -0.7,0.3 -1.2,0.5 -0.5,0.2 -1,0.2 -1.3,0.2 -0.6,0 -0.9,-0.2 -0.9,-0.6 0,-0.2 0.1,-0.5 0.3,-0.9 0.2,-0.4 0.4,-1 0.8,-1.7 0.3,-0.7 0.7,-1.4 1.1,-2 0.5,-0.7 1,-1.4 1.4,-2.1 z m -12.7,4.5 v 0.2 c 0,0.3 0.2,0.6 0.5,0.9 0.3,0.3 0.7,0.4 1,0.4 0.4,0 0.9,-0.1 1.7,-0.3 0.8,-0.2 1.6,-0.4 2.5,-0.8 l 0.4,-0.2 c 0.3,-0.1 0.4,-0.2 0.5,-0.2 0.4,-0.2 0.7,-0.3 0.8,-0.3 0.1,0 0.2,0.1 0.2,0.2 0,0.2 0,0.4 -0.1,0.6 -0.1,0.2 -0.2,0.4 -0.4,0.6 -0.1,0.2 -0.3,0.3 -0.4,0.4 -0.4,0.2 -1.1,0.5 -2.2,0.8 -1,0.3 -2.1,0.5 -3.1,0.7 -0.4,0 -0.7,0.1 -1,0.1 -1,0 -1.9,-0.1 -2.8,-0.4 -0.8,-0.3 -1.5,-0.6 -2,-1.1 -0.5,-0.5 -0.7,-1 -0.7,-1.5 0,-0.5 0.2,-1 0.5,-1.5 0.3,-0.5 0.7,-1.1 1.3,-1.6 0.6,-0.6 1.2,-1.1 1.9,-1.5 0.6,-0.4 1.3,-0.7 2,-1.1 0.7,-0.3 1.5,-0.6 2.2,-0.7 0.7,-0.2 1.3,-0.3 1.9,-0.3 0.9,0 1.7,0.2 2.4,0.5 0.7,0.3 1,0.7 1,1.2 0,0.2 -0.1,0.4 -0.2,0.7 -0.1,0.2 -0.3,0.5 -0.5,0.6 -0.2,0.2 -0.5,0.4 -0.9,0.6 -0.4,0.2 -0.9,0.3 -1.4,0.5 -0.6,0.2 -1.1,0.2 -1.6,0.2 -0.4,0 -0.7,-0.1 -0.7,-0.2 0,-0.1 0.1,-0.2 0.4,-0.4 0.3,-0.1 0.5,-0.4 0.8,-0.6 0.2,-0.3 0.4,-0.6 0.6,-1 0.2,-0.4 0.3,-0.7 0.3,-0.9 0,-0.2 -0.1,-0.3 -0.2,-0.3 -0.3,0 -0.7,0.2 -1.4,0.5 -0.7,0.4 -1.2,0.7 -1.6,1.1 -0.4,0.3 -0.7,0.7 -0.9,1 -0.2,0.3 -0.4,0.7 -0.5,1 z M 58.9,43.8 58.2,43 c 0.2,-0.1 0.3,-0.1 0.5,-0.2 0.6,-0.1 1.3,-0.2 2.1,-0.2 0.8,0 1.5,0.2 1.9,0.5 0.4,0.2 0.7,0.6 1,1.1 0.2,0.5 0.5,1.1 0.7,2 0.1,0.4 0.2,0.8 0.3,1 0.3,0.6 0.4,1 0.5,1.2 0.1,0.2 0.2,0.4 0.5,0.8 0.1,0.1 0.2,0.2 0.3,0.5 0.1,0.2 0.2,0.4 0.4,0.5 0.2,0.4 0.6,0.8 1.1,1.4 -0.6,0.3 -1.2,0.5 -1.6,0.6 -0.4,0.1 -0.8,0.2 -1.2,0.2 -0.4,0 -0.8,-0.1 -1.1,-0.2 -0.3,-0.1 -0.6,-0.3 -0.8,-0.5 -0.3,-0.3 -0.6,-0.8 -0.9,-1.3 0,0 -0.1,-0.1 -0.1,-0.2 0,-0.1 -0.1,-0.2 -0.1,-0.2 -0.9,0.2 -1.5,0.3 -2,0.3 -0.3,0 -0.5,0 -0.7,0 -0.2,0 -1,0 -2.4,0 l -0.1,0.1 c -0.4,0.5 -0.8,1 -1.2,1.2 -0.4,0.3 -0.8,0.5 -1.2,0.6 -0.5,0.1 -1.1,0.2 -1.8,0.2 -0.4,0 -0.7,0 -0.9,-0.1 -0.2,-0.1 -0.3,-0.2 -0.3,-0.3 0,-0.2 0.4,-0.6 1.2,-1.3 0.3,-0.2 0.5,-0.4 0.7,-0.6 -0.8,-0.1 -1.2,-0.3 -1.2,-0.5 0,-0.2 0.3,-0.5 0.9,-0.9 0.3,-0.2 0.6,-0.3 0.8,-0.4 0.3,0 0.7,-0.1 1.3,-0.1 0.6,-0.7 1,-1.1 1.1,-1.3 0.2,-0.2 0.4,-0.4 0.6,-0.7 0.3,-0.3 0.6,-0.6 0.9,-1 0.5,-0.3 1,-0.7 1.5,-1.4 z m 1,1.9 -2.1,2.7 h 3 z m 44.1,0.6 -0.4,0.6 c -0.5,0.7 -0.9,1.4 -1.4,2.1 -0.2,0.3 -0.5,0.9 -0.9,1.8 l -0.7,1.6 c -0.2,0.5 -1.7,0 -2.2,-0.1 0,0 -0.1,0 -0.4,-0.1 -0.4,-0.1 -0.6,-0.3 -0.6,-0.7 0,-0.3 0.1,-0.7 0.4,-1.4 0.2,-0.7 0.6,-1.5 1,-2.5 1,-2.2 1.8,-3.6 2.3,-4.2 0.2,-0.2 0.4,-0.3 0.6,-0.4 0.2,-0.1 0.6,-0.2 1,-0.2 0.4,-0.1 0.9,-0.1 1.4,-0.1 0.5,0 0.9,0 1.1,0.1 0.2,0.1 0.3,0.2 0.3,0.4 0,0.2 -0.1,0.6 -0.4,1.1 -0.2,0.5 -0.6,1.2 -1.1,2 z"
       id="path39"
       inkscape:connector-curvature="0"
       style="clip-rule:evenodd;fill:#ffffff;fill-rule:evenodd" /><polygon
       class="st4"
       points="119.7,70.1 119.7,71.4 32.2,71.2 "
       id="polygon41"
       style="clip-rule:evenodd;fill:#e30016;fill-rule:evenodd" /></g><g
     class="st5"
     id="g43"
     style="display:none"><path
   class="st6"
   d="m 703.2,339 -176.8,0 C 519,339 513,333 513,325.6 l 0,-34.1 c 0,-7.4 6,-13.4 13.4,-13.4 l 176.8,0 c 7.4,0 13.4,6 13.4,13.4 l 0,34.1 c 0.1,7.3 -6,13.4 -13.4,13.4 z"
   id="path45"
   inkscape:connector-curvature="0"
   style="display:inline" /><g
   class="st6"
   id="g47"
   style="display:inline"><path
     d="m 706.7,339.1 -41,0 c -5.5,0 -10,-4.5 -10,-10 l 0,-41 c 0,-5.5 4.5,-10 10,-10 l 41,0 c 5.5,0 10,4.5 10,10 l 0,41 c 0.1,5.5 -4.4,10 -10,10 z"
     id="path49"
     inkscape:connector-curvature="0" /><path
     class="st7"
     d="m 705.9,298.1 -40.1,0 c -3.3,0 -5.9,-2.7 -5.9,-5.9 l 0,-0.7 c 0,-3.3 2.7,-5.9 5.9,-5.9 l 40.1,0 c 3.3,0 5.9,2.7 5.9,5.9 l 0,0.7 c 0,3.2 -2.7,5.9 -5.9,5.9 z"
     id="path51"
     inkscape:connector-curvature="0"
     style="fill:#f2f2f2;stroke:#808080;stroke-width:0.43720001;stroke-miterlimit:10" /><path
     class="st7"
     d="m 705.9,314.8 -40.1,0 c -3.3,0 -5.9,-2.7 -5.9,-5.9 l 0,-0.7 c 0,-3.3 2.7,-5.9 5.9,-5.9 l 40.1,0 c 3.3,0 5.9,2.7 5.9,5.9 l 0,0.7 c 0,3.3 -2.7,5.9 -5.9,5.9 z"
     id="path53"
     inkscape:connector-curvature="0"
     style="fill:#f2f2f2;stroke:#808080;stroke-width:0.43720001;stroke-miterlimit:10" /><path
     class="st7"
     d="m 705.9,331.6 -40.1,0 c -3.3,0 -5.9,-2.7 -5.9,-5.9 l 0,-0.7 c 0,-3.3 2.7,-5.9 5.9,-5.9 l 40.1,0 c 3.3,0 5.9,2.7 5.9,5.9 l 0,0.7 c 0,3.2 -2.7,5.9 -5.9,5.9 z"
     id="path55"
     inkscape:connector-curvature="0"
     style="fill:#f2f2f2;stroke:#808080;stroke-width:0.43720001;stroke-miterlimit:10" /></g><rect
   x="525.29999"
   y="290.29999"
   style="display:inline;fill:none"
   width="117.9"
   height="41.400002"
   id="rect57" /><text
   transform="translate(535.6221,318.8623)"
   style="font-size:40.29629898px;line-height:0%;font-family:MyriadPro-Regular;display:inline;fill:#ffffff"
   id="text59">Menu</text>


</g></svg>