<?xml version="1.0" encoding="utf-8"?>
<!-- Generator: Adobe Illustrator 22.0.1, SVG Export Plug-In . SVG Version: 6.00 Build 0)  -->
<svg version="1.1" id="Capa_1" xmlns="http://www.w3.org/2000/svg" xmlns:xlink="http://www.w3.org/1999/xlink" x="0px" y="0px"
	 viewBox="0 0 128 134" style="enable-background:new 0 0 128 134;" xml:space="preserve">
<style type="text/css">
	.st0{fill:#27D166;}
	.st1{fill:#FFFFFF;stroke:#FFFFFF;stroke-width:0.5175;stroke-miterlimit:10;}
</style>
<g>
	<circle class="st0" cx="61.9" cy="70.9" r="42.9"/>
	<g>
		<path class="st1" d="M79.7,49.5c-16.1-12.4-30.9-3-30.9-3c-23.6,16.6-9.7,37.2-9.7,37.2l-4.9,14.9l14.6-5l2.4,1.5
			c19.9,7.5,32.5-7.9,32.5-7.9C98.9,64,79.7,49.5,79.7,49.5z M63.1,92.7c0,0-6.7,0.4-13.5-3.7l-8.6,2.7l3-8.4c0,0-12.4-16.3,4-30.9
			c0,0,12.8-9.2,26-1.7C85.6,57.3,85,70.8,85,70.8S85.4,90.2,63.1,92.7z"/>
		<path class="st1" d="M55.7,68.1c0,0,4.1,6.9,10,8.5h0.5l2.4-3.1c0,0,0.8-0.8,1.6-0.1l5.5,2.7c0,0,1.1,3.2-1.2,4.8
			c-2.3,1.6-4.5,2.9-8.5,1.2l-3.8-1.5c0,0-9.7-4.7-12.9-14c0,0-1.6-6.5,2.9-8.9h2.6c0,0,0.7,0.2,1,1.4c0.2,1.2,1.9,4.2,1.9,4.2
			s1.2,1-0.4,2.9C55.7,68.1,55.7,68.1,55.7,68.1z"/>
	</g>
</g>
</svg>
